<svg id="Слой_1" data-name="Слой 1" xmlns="http://www.w3.org/2000/svg" viewBox="0 0 604.07 663.04"><path d="M328.78,603.9c-66.93,0-132.41-6.78-179.66-18.6-54.43-13.62-83.2-33.06-83.2-56.22V90.34c0-23.15,28.77-42.59,83.2-56.21C196.37,22.3,261.85,15.52,328.78,15.52s132.4,6.78,179.65,18.61c54.43,13.62,83.2,33.06,83.2,56.21v292.5a12.15,12.15,0,0,1-24.3,0V270.25c-40.57,25.07-133.45,41.16-238.56,41.16s-198-16.09-238.56-41.16V382.84c0,7.63,16.72,20.71,63.84,32.45,46.8,11.66,108.85,18.08,174.72,18.08,18.93,0,37.73-.53,55.88-1.58l7.14-.41,3.3-.25.9,0h.51l3-.18-.54.54a12.19,12.19,0,0,1,9.1,10.94,12.15,12.15,0,0,1-11.29,12.94c-21.93,1.54-44.82,2.32-68,2.32-105.1,0-198-16.1-238.56-41.18v112.6c0,7.63,16.72,20.71,63.84,32.45,46.8,11.66,108.85,18.08,174.72,18.08,12.27,0,24.31-.23,35.79-.67h.22a12.36,12.36,0,0,1,12.36,11.7,12.2,12.2,0,0,1-11.7,12.6C353.5,603.68,341.17,603.9,328.78,603.9ZM90.21,236.59c0,7.64,16.72,20.72,63.84,32.46,46.8,11.65,108.85,18.07,174.72,18.07s127.92-6.42,174.72-18.07c47.12-11.74,63.84-24.82,63.84-32.46V124c-40.57,25.07-133.45,41.16-238.56,41.16s-198-16.1-238.56-41.17ZM328.77,39.82c-65.87,0-127.92,6.41-174.72,18.07C106.93,69.63,90.21,82.71,90.21,90.35s16.72,20.71,63.84,32.45c46.8,11.66,108.85,18.08,174.72,18.08s127.92-6.42,174.72-18.08c47.12-11.74,63.84-24.82,63.84-32.45s-16.72-20.72-63.84-32.46C456.69,46.24,394.64,39.82,328.77,39.82Z" transform="translate(-65.92 -15.52)"/><path d="M631.53,678.55a12.87,12.87,0,0,1-1.51-.15l-59.26-9.52-1.92-.07-.45-.49-.67-.25-.11,0-.11,0c-.35-.15-.7-.32-1.07-.52l-.21-.12c-.32-.18-.64-.39-1-.6l-.13-.09a12.82,12.82,0,0,1-2.1-1.9l-.07-.08a12.16,12.16,0,0,1-.8-1l-.12-.17a10.83,10.83,0,0,1-.72-1.22l-.11-.11-.34-.84-.49-1.09v-.29l0-.06-.08-.31,0-.14c-.07-.26-.13-.57-.18-.88,0-.11-.05-.28-.07-.46s-.06-.54-.08-.79,0-.4,0-.63V656c0-.3,0-.62.08-.94a1.64,1.64,0,0,1,0-.22,12.67,12.67,0,0,1,.23-1.27l0-.17.05-.16a9.12,9.12,0,0,1,.28-.93c0-.12.1-.27.16-.42l.22-.55.11-.23,26.19-54.71a12.49,12.49,0,0,1,11.76-7.09,12.23,12.23,0,0,1,4.92,1.22,12.53,12.53,0,0,1,5.88,16.67l-11.45,23.92a105.71,105.71,0,0,0-29.07-189,12.5,12.5,0,1,1,7.12-24A130.76,130.76,0,0,1,614.3,650.55L634,653.71a12.5,12.5,0,0,1-2.44,24.84Z" transform="translate(-65.92 -15.52)"/><path d="M525.11,668.73a12.19,12.19,0,0,1-3.12-.4c-42.53-11-77.3-37.71-93.49-71.83h0l-.9-2a110.94,110.94,0,0,1-6.85-20.35A130.86,130.86,0,0,1,485,430.06L462.07,425a12.59,12.59,0,0,1-8.7-7.09,12.44,12.44,0,0,1-.8-7.82,12.58,12.58,0,0,1,12.2-9.8,13,13,0,0,1,2.71.29l68.06,15.08.21,0,.18.06c.31.08.6.16.87.25s.4.13.61.21l.37.15a11.77,11.77,0,0,1,6.58,6.5,12.26,12.26,0,0,1,.54,1.51l.08.28c.08.31.16.67.23,1,0,.11,0,.25.06.39s.05.35.07.52,0,.29,0,.46,0,.33,0,.46c0,.36,0,.71,0,1.05,0,.13,0,.25,0,.37a12.25,12.25,0,0,1-.55,2.73l-.08.24a9,9,0,0,1-.42,1.06c0,.08-.09.2-.14.31-.14.28-.28.55-.43.82s-.15.26-.23.39l-34.45,55.89a12.42,12.42,0,0,1-10.65,5.94h0a12.5,12.5,0,0,1-10.63-19.07L506,447.63A105.68,105.68,0,0,0,445.09,568.5C454.9,611,496,635.82,528.22,644.12a12.5,12.5,0,0,1-3.11,24.61Z" transform="translate(-65.92 -15.52)"/></svg>