<svg width="30" height="30" viewBox="0 0 30 30" fill="none" xmlns="http://www.w3.org/2000/svg">
<g clip-path="url(#clip0_53_64)">
<path d="M26.25 18.75C28.3175 18.75 30 17.0675 30 15C30 12.9325 28.3175 11.25 26.25 11.25C24.1825 11.25 22.5 12.9325 22.5 15C22.5 17.0675 24.1825 18.75 26.25 18.75ZM26.25 12.5C27.6288 12.5 28.75 13.6212 28.75 15C28.75 16.3787 27.6288 17.5 26.25 17.5C24.8713 17.5 23.75 16.3787 23.75 15C23.75 13.6212 24.8713 12.5 26.25 12.5Z" fill="#000" fill-opacity="0.5"/>
<path d="M15 18.75C17.0675 18.75 18.75 17.0675 18.75 15C18.75 12.9325 17.0675 11.25 15 11.25C12.9325 11.25 11.25 12.9325 11.25 15C11.25 17.0675 12.9325 18.75 15 18.75ZM15 12.5C16.3788 12.5 17.5 13.6212 17.5 15C17.5 16.3787 16.3788 17.5 15 17.5C13.6213 17.5 12.5 16.3787 12.5 15C12.5 13.6212 13.6213 12.5 15 12.5Z" fill="#000" fill-opacity="0.5"/>
<g opacity="0.5">
<circle cx="4" cy="15" r="4" fill="#000"/>
</g>
</g>
<defs>
<clipPath id="clip0_53_64">
<rect width="30" height="30" fill="#000" transform="matrix(-1 0 0 1 30 0)"/>
</clipPath>
</defs>
</svg>
