<?xml version="1.0" encoding="utf-8"?>
<!-- Generator: Adobe Illustrator 25.0.0, SVG Export Plug-In . SVG Version: 6.00 Build 0)  -->
<svg version="1.1" id="Layer_1" xmlns="http://www.w3.org/2000/svg" xmlns:xlink="http://www.w3.org/1999/xlink" x="0px" y="0px"
	 viewBox="0 0 32 32" style="enable-background:new 0 0 32 32;" xml:space="preserve">
<path d="M16,0C7.2,0,0,7.2,0,16s7.2,16,16,16s16-7.2,16-16S24.8,0,16,0z M23.7,23.7L23.7,23.7c-0.3,0.3-0.7,0.3-1,0L16,17l-6.7,6.7
	l0,0c-0.3,0.3-0.7,0.3-1,0l0,0c-0.3-0.3-0.3-0.7,0-1L15,16L8.3,9.3C8,9,8,8.6,8.3,8.3s0.7-0.3,1,0L16,15l6.7-6.7
	c0.3-0.3,0.7-0.3,1,0s0.3,0.7,0,1L17,16l6.7,6.7l0,0C24,23,24,23.4,23.7,23.7z"/>
</svg>
