<svg width="20" height="20" viewBox="0 0 20 20" fill="none" xmlns="http://www.w3.org/2000/svg">
<g clip-path="url(#clip0_62_33)">
<path d="M15.2148 1.40569C15.0887 1.28024 14.8994 1.2429 14.735 1.31121C14.5707 1.37953 14.4635 1.54008 14.4635 1.71802V4.06866C12.0841 4.16331 10.8926 5.14968 10.7106 5.31368C9.51011 6.29885 8.69048 7.67172 8.39278 9.19568C8.24393 9.93202 8.21726 10.6878 8.31414 11.4328L8.31448 11.4353C8.31534 11.4419 8.31638 11.4486 8.31741 11.4551L8.41102 11.9932C8.44251 12.1744 8.58345 12.3171 8.76431 12.3508C8.94534 12.3845 9.12809 12.3021 9.22273 12.1443L9.50323 11.6768C10.365 10.2438 11.439 9.29394 12.6957 8.85358C13.2625 8.65311 13.8631 8.56517 14.4635 8.59443V11.029C14.4635 11.2073 14.571 11.3682 14.7359 11.4362C14.9009 11.5043 15.0906 11.4661 15.2164 11.3397L19.8717 6.66074C20.0433 6.48831 20.0426 6.20936 19.8702 6.0378L15.2148 1.40569ZM15.3447 9.96145V8.19812C15.3447 7.98198 15.1878 7.79768 14.9742 7.76327C14.5974 7.70252 13.5922 7.60598 12.4044 8.02225C11.1371 8.46622 10.0408 9.33989 9.1379 10.6236C9.13532 10.2018 9.17524 9.78076 9.25715 9.3669C9.52491 8.01313 10.205 6.87601 11.2783 5.98755C11.2877 5.97981 11.2967 5.97172 11.3054 5.96311C11.3362 5.93455 12.4551 4.92443 14.9006 4.94267H14.9039C15.1472 4.94267 15.3446 4.74529 15.3447 4.50196V2.77787L18.9366 6.35168L15.3447 9.96145Z" fill="#000"/>
<path d="M18.3856 14.2491C18.1425 14.2491 17.9451 14.4463 17.9451 14.6896V16.5513C17.9444 17.281 17.3531 17.8721 16.6235 17.8729H2.20265C1.47302 17.8721 0.881922 17.281 0.881061 16.5513V6.05605C0.881922 5.32642 1.47302 4.73532 2.20265 4.73445H5.24937C5.49269 4.73445 5.6899 4.53725 5.6899 4.29392C5.6899 4.0506 5.49269 3.85339 5.24937 3.85339H2.20265C0.98672 3.85477 0.00137666 4.84011 0 6.05605V16.5513C0.00137666 17.7673 0.98672 18.7526 2.20265 18.754H16.6235C17.8394 18.7526 18.8248 17.7673 18.8261 16.5513V14.6896C18.8261 14.4463 18.6289 14.2491 18.3856 14.2491Z" fill="#000"/>
</g>
<defs>
<clipPath id="clip0_62_33">
<rect width="20" height="20" fill="#000"/>
</clipPath>
</defs>
</svg>
