<svg width="21" height="21" viewBox="0 0 21 21" fill="none" xmlns="http://www.w3.org/2000/svg">
<path d="M13.5379 6.97105C14.2111 7.25577 14.8337 7.62978 15.3983 8.08583V4.86212C15.3983 2.18132 13.217 0 10.5362 0H10.4614C7.783 0 5.60168 2.18132 5.60168 4.86212V8.08583C6.16632 7.62981 6.78886 7.2558 7.46208 6.97105C7.64305 6.89383 7.82885 6.82385 8.01465 6.76112V4.86212C8.01465 3.51086 9.11254 2.41296 10.4638 2.41296H10.5386C11.8899 2.41296 12.9878 3.51086 12.9878 4.86212V6.76353C13.1711 6.82385 13.3569 6.89383 13.5379 6.97105Z" fill="#000" fill-opacity="0.9"/>
<path d="M3.66168 14.1617C3.66168 17.9379 6.72373 21 10.5 21C14.2763 21 17.3384 17.9403 17.3384 14.1617C17.3384 12.3061 16.5976 10.6219 15.3984 9.38881C14.7227 8.69631 13.9023 8.14613 12.9854 7.78662C12.2157 7.485 11.3759 7.32092 10.5 7.32092C9.62413 7.32092 8.78442 7.485 8.01469 7.78662C7.09776 8.14374 6.27736 8.6939 5.60173 9.38881C4.40005 10.6219 3.66168 12.3061 3.66168 14.1617ZM8.73853 12.7815C8.76266 11.8476 9.52274 11.0876 10.4566 11.0658C11.4483 11.0417 12.2615 11.8404 12.2615 12.8273C12.2615 12.9311 12.2518 13.0324 12.2349 13.1289C12.148 13.6284 11.8512 14.0579 11.4362 14.3185C11.2649 14.4271 11.178 14.6298 11.2215 14.8252L11.7451 17.3082C11.7765 17.4578 11.6631 17.6002 11.5086 17.6002H9.4914C9.33697 17.6002 9.22353 17.4602 9.25493 17.3082L9.77851 14.8252C9.81954 14.6274 9.73508 14.4247 9.56379 14.3161C9.14876 14.0555 8.85196 13.6284 8.76507 13.1265C8.74577 13.0155 8.73614 12.8997 8.73853 12.7815Z" fill="#000" fill-opacity="0.9"/>
</svg>
