<svg width="20" height="20" viewBox="0 0 20 20" fill="none" xmlns="http://www.w3.org/2000/svg">
<path d="M18.8357 8.83578C18.8357 3.96371 14.8721 0 10 0C5.128 0 1.16425 3.96371 1.16425 8.83578C1.16425 9.12519 1.39889 9.35984 1.68831 9.35984C1.97772 9.35984 2.21237 9.12516 2.21237 8.83578C2.21237 4.54164 5.70589 1.04816 9.99999 1.04816C14.2941 1.04816 17.7876 4.54168 17.7876 8.83578C17.7876 13.1298 14.2941 16.6234 9.99999 16.6234H9.09077L10.3908 15.1681C10.5837 14.9523 10.565 14.6209 10.3492 14.4281C10.1333 14.2352 9.80198 14.254 9.60917 14.4698L7.75073 16.5501C7.44651 16.8906 7.44651 17.4042 7.75073 17.7448L9.60917 19.825C9.71272 19.941 9.85612 20 10.0002 20C10.1244 20 10.2492 19.956 10.3492 19.8668C10.565 19.6739 10.5837 19.3426 10.3908 19.1268L9.09077 17.6715H9.99999C14.8721 17.6715 18.8357 13.7078 18.8357 8.83578Z" fill="#000"/>
</svg>
