<svg width="21" height="26" viewBox="0 0 21 26" fill="none" xmlns="http://www.w3.org/2000/svg">
<path d="M10.5544 24.6779C15.6623 24.6779 19.8031 20.4854 19.8031 15.3135C19.8031 10.1417 15.6623 5.94913 10.5544 5.94913C5.44651 5.94913 1.30573 10.1417 1.30573 15.3135C1.30573 20.4854 5.44651 24.6779 10.5544 24.6779Z" stroke="#000" stroke-width="2"/>
<path d="M8.26947 3.96609C8.26947 2.42372 9.13994 1.21185 10.228 1.21185H10.8809C11.4249 1.21185 11.8601 1.54236 12.2954 1.98304C12.6218 2.42372 12.7306 2.97456 12.8394 3.96609C12.9482 4.62711 12.9482 5.17795 12.9482 5.61863C11.4249 5.61863 9.9016 5.7288 8.48709 5.7288C8.37828 5.17795 8.37828 4.62711 8.26947 3.96609Z" stroke="#000" stroke-width="1.5" stroke-miterlimit="10"/>
<path d="M5.24028 19.1593V11.3258H6.7179L10.1762 15.8425C10.2321 15.9158 10.2757 15.9857 10.3072 16.0521C10.3386 16.115 10.3596 16.1534 10.37 16.1673L10.3438 15.7691V11.3258H12.0625V19.1593H10.5849L7.1266 14.6006C7.02879 14.4539 6.96417 14.3491 6.93273 14.2863L6.95369 14.674V19.1593H5.24028ZM12.9637 16.4241V15.5543H16.7311V16.4241H12.9637ZM12.9637 13.0549C12.9637 12.5554 13.1332 12.1257 13.472 11.7659C13.8353 11.3852 14.2859 11.1948 14.8239 11.1948C15.3618 11.1948 15.8194 11.3799 16.1967 11.7502C16.553 12.0995 16.7311 12.5292 16.7311 13.0392C16.7311 13.2977 16.6822 13.5457 16.5844 13.7832C16.4901 14.0208 16.3591 14.2286 16.1914 14.4068C15.8351 14.784 15.3863 14.9727 14.8448 14.9727C14.2999 14.9727 13.8545 14.7998 13.5087 14.4539C13.1454 14.0906 12.9637 13.6243 12.9637 13.0549ZM14.2108 12.4052C14.0536 12.5868 13.975 12.8174 13.975 13.0968C13.975 13.3763 14.0519 13.6016 14.2056 13.7728C14.3593 13.9439 14.5776 14.0295 14.8605 14.0295C15.1435 14.0295 15.3583 13.9387 15.505 13.757C15.6518 13.5754 15.7251 13.3414 15.7251 13.0549C15.7251 12.7685 15.6395 12.5432 15.4684 12.379C15.3007 12.2148 15.0876 12.1327 14.8291 12.1327C14.5741 12.1327 14.368 12.2235 14.2108 12.4052Z" fill="#000"/>
</svg>
