<svg width="20" height="20" viewBox="0 0 20 20" fill="none" xmlns="http://www.w3.org/2000/svg">
<path d="M15.8199 13.4405C14.7752 13.4405 13.8438 13.932 13.2428 14.6953L7.22352 11.2202C7.3754 10.8428 7.45981 10.4312 7.45981 10C7.45981 9.56889 7.37536 9.15733 7.22352 8.77987L13.2428 5.30472C13.8438 6.068 14.7752 6.55956 15.8199 6.55956C17.6283 6.55956 19.0996 5.08823 19.0996 3.2798C19.0996 1.47133 17.6284 0 15.8199 0C14.0114 0 12.5401 1.47129 12.5401 3.27972C12.5401 3.71089 12.6246 4.12253 12.7765 4.50003L6.75735 7.97518C6.1563 7.21182 5.22481 6.72022 4.18009 6.72022C2.37162 6.72022 0.90033 8.19155 0.90033 9.99998C0.90033 11.8084 2.37162 13.2797 4.18009 13.2797C5.22481 13.2797 6.1563 12.7881 6.75735 12.0248L12.7765 15.5C12.6246 15.8775 12.5401 16.2891 12.5401 16.7203C12.5401 18.5288 14.0114 20 15.8199 20C17.6283 20 19.0996 18.5287 19.0996 16.7203C19.0996 14.9118 17.6284 13.4405 15.8199 13.4405ZM15.8199 0.929998C17.1155 0.929998 18.1697 1.9841 18.1697 3.27972C18.1697 4.57538 17.1156 5.62952 15.8199 5.62952C14.5242 5.62952 13.4701 4.57538 13.4701 3.27972C13.4701 1.98406 14.5242 0.929998 15.8199 0.929998ZM4.18009 12.3498C2.88443 12.3498 1.83029 11.2956 1.83029 9.99998C1.83029 8.70432 2.88439 7.65018 4.18009 7.65018C5.47575 7.65018 6.52989 8.70432 6.52989 9.99998C6.52989 11.2956 5.47575 12.3498 4.18009 12.3498ZM15.8199 19.07C14.5242 19.07 13.4701 18.0159 13.4701 16.7202C13.4701 15.4246 14.5242 14.3704 15.8199 14.3704C17.1155 14.3704 18.1697 15.4246 18.1697 16.7202C18.1697 18.0159 17.1155 19.07 15.8199 19.07Z" fill="#000"/>
<path d="M4.18012 8.61743C3.41778 8.61743 2.79755 9.23762 2.79755 10C2.79755 10.2568 3.00571 10.465 3.26255 10.465C3.51938 10.465 3.72754 10.2568 3.72754 10C3.72754 9.75044 3.93055 9.54743 4.18012 9.54743C4.43692 9.54743 4.64512 9.33919 4.64512 9.08243C4.64512 8.82563 4.43692 8.61743 4.18012 8.61743Z" fill="#000"/>
</svg>
