<svg xmlns="http://www.w3.org/2000/svg" viewBox="0 0 108 108.03"><defs><style>.cls-1{fill:#d8cfcc;}.cls-2{fill:#d2c9c6;}.cls-3,.cls-7{fill:#a8060f;}.cls-4{fill:none;}.cls-4,.cls-7{stroke:#000;stroke-opacity:0.08;}.cls-5{fill:#8f070f;}.cls-6{fill:#ddcfaf;}.cls-8{fill:#e6d6b3;}.cls-9{fill:#815539;}.cls-10{fill:#a16742;}.cls-11{fill:#7a5136;}</style></defs><g id="Слой_2" data-name="Слой 2"><g id="Слой_1-2" data-name="Слой 1"><g id="Слой_2-2" data-name="Слой 2"><g id="Слой_1-2-2" data-name="Слой 1-2"><path class="cls-1" d="M91.12,108H16.87A16.87,16.87,0,0,1,0,91.13H0V16.88A16.87,16.87,0,0,1,16.86,0H91.12A16.87,16.87,0,0,1,108,16.86V91.12A16.6,16.6,0,0,1,91.14,108Z"/><path class="cls-2" d="M62.35,27.21,108,59.79V92.35c0,5-5,16.34-18,15.65L50.37,80.82a34.48,34.48,0,0,0,5.2.07c4.34-.14,10.84-4.94,10.84-12,0,0,.34-10-10.67-12.37l0-.38s.15-.67-1-1l-.06-.55,10.94-6,1.52-.67,1.24-.77Z"/><path class="cls-3" d="M49.4,27.21h9.71l6.54,21.38L57.53,53Z"/><path class="cls-4" d="M65.56,48.56l-8,4.32L49.5,27.29h9.55Z"/><path class="cls-3" d="M61,27.21h1.4L68.4,47.13l-1.24.77Z"/><path class="cls-4" d="M68.32,47.1l-1.12.67L61,27.29H62.3Z"/><path class="cls-5" d="M39.46,47c.11,0,6-19.76,6-19.76H47.8l8.11,26.67-1.19.67c-.3.15-.58.32-.87.48l-.8-.41-1.22-.76,1.34-4-1-2.8-1.92,6-8.2-4.51,5.34-17-.94-2.74-5.78,19Z"/><path class="cls-4" d="M45.55,27.29h2.2l8.08,26.54-1.16.68-.44.24h0l-.4.22-.36-.2h0l-.39-.2-1.16-.73,1.33-3.93h0l-1-2.79-.07-.2-.06.2L50.28,53l-8.09-4.48,5.3-17v0l-.93-2.76-.07-.2-.07.21L40.67,47.64,39.55,47h0l.06-.16c0-.15.12-.36.2-.63.18-.54.42-1.33.7-2.24.58-1.85,1.34-4.32,2.08-6.79l2.08-6.82c.28-.93.5-1.7.66-2.24.08-.28.14-.48.19-.63Z"/><path class="cls-6" d="M40.7,47.75l5.79-19,.93,2.77-5.33,17Z"/><path class="cls-4" d="M42.06,48.49l-1.28-.78,5.71-18.66.84,2.51Z"/><path class="cls-7" d="M55.9,53.82,47.74,27.25H45.91l8.79,27.2Z"/><path class="cls-6" d="M50.3,53.11l1.91-6,1,2.8-1.33,4Z"/><path class="cls-4" d="M51.79,53.78l-1.4-.71,1.82-5.73.88,2.57Z"/><path class="cls-8" d="M47.79,27.21H49.4L57.53,53l-1.62.89Z"/><path class="cls-4" d="M57.45,53l-1.5.81L47.88,27.29h1.45Z"/><path class="cls-8" d="M59.11,27.21H61l6.21,20.67-1.51.67Z"/><path class="cls-4" d="M67.08,47.87l-1.39.62L59.2,27.29h1.69Z"/><path class="cls-9" d="M53.05,54.64l.8.38.87-.45,0,.56s1.05.31,1,1,0,1.09,0,1.09l-.67-.08v-.95s-.19-.54-.57-.08c0,0-.55.94-1.26,0,0,0-.32-.44-.62.08v.95l-.54.08v-1a.93.93,0,0,1,1-.84Z"/><path class="cls-9" d="M54,81.34A12.46,12.46,0,1,0,41.49,68.88h0A12.44,12.44,0,0,0,53.94,81.34Z"/><path class="cls-10" d="M54,80.89a12,12,0,1,0-12-12h0A12,12,0,0,0,54,80.89Z"/><path class="cls-4" d="M65.88,68.94A11.88,11.88,0,1,1,54,57.06h0A11.88,11.88,0,0,1,65.88,68.94Z"/><path class="cls-11" d="M62.71,71.31l-.18.22-1.73.14h0l-.15-.08h0v0h0c0-.08.08-.36.14-.23a.29.29,0,0,0,.25.14c.24,0,.21-.38.21-.38,0-.24-.32-.27-.42-.28h0c-.67.21-.34.93-.31,1h0l1.29,1.49-.07.09c-.15.34.11.31.19.29h0l.18-.25c.32-.4.24-.38.12-.51s-.34.11-.34.11l-.76-.92h1.25l-.17.2c-.07.14.19.16.26.16h0l.52-1C63,71.12,62.71,71.31,62.71,71.31Z"/><path class="cls-11" d="M54.41,75.34h0l-.86-.06c-.09,0-1-.11-1-.12-.19,0-.22.09-.22.09l-.11.37h0v.07h0a.31.31,0,0,0,.19,0c.14,0,.29-.25.29-.25h.25l.58.06v.59c0,.24-.07.28-.12.29h-.11c-.13,0-.15-.17-.15-.17S53,76,53,76c-.16-.09-.15.08-.15.08a3.93,3.93,0,0,0-.06.48c0,.28,0,.25.11.28s.19-.2.19-.2c.31-.27.32.1.32.1l-.09.62H52.8l-.28-.09s-.11,0-.12-.21-.11-.18-.17-.18h-.1c-.1,0-.09.32-.09.32s0,.29.09.26a1.21,1.21,0,0,1,.38.06,1.64,1.64,0,0,0,.44,0l.58,0a3.05,3.05,0,0,1,.52,0,.67.67,0,0,0,.2,0h0s.06-.13-.14-.17a.19.19,0,0,1-.18-.21v0L54,75.57h.33C54.53,75.56,54.43,75.38,54.41,75.34Z"/><path class="cls-11" d="M49.75,74l-.4-.36-.33-.3c-.23-.06-.14.14-.14.14l.13.12c.14.16.06.16.06.16l-.54.54h-.05s-.33-.3-.47-.41a2.23,2.23,0,0,0-.3-.2.76.76,0,0,0-.66.33.51.51,0,0,0,.1.72l1,1,.18.12c.16,0,.08-.12.08-.12l-.09-.08c-.15-.12,0-.28,0-.28l.31-.3s.54-.6.7-.8a.25.25,0,0,1,.35-.06C50.12,74.19,49.75,74,49.75,74Zm-2,1.11-.32-.29s-.12-.12.08-.38.4-.38.6-.2a2.91,2.91,0,0,0,.28.22Z"/><path class="cls-11" d="M45.72,64.54l1.61.73s.16,0,.24-.21c0,0,0-.12.15,0s0,.26,0,.26a2.79,2.79,0,0,0-.32.78s-.06.33-.27.25,0-.31,0-.31.1-.09-.13-.18l-1.43-.62a.16.16,0,0,0-.24,0l0,0c-.08.18-.17.15-.22.14s-.12,0,0-.33a5,5,0,0,0,.38-.81c.06-.22.21-.11.21-.11s.09,0,0,.19Z"/><path class="cls-11" d="M47.83,61.34c.21-.11,1.62-1.08,1.62-1.08a.15.15,0,0,1,.21,0l0,0,.17.21s.19.27-.18.18c0,0-.2-.17-.35-.08s-.67.47-.67.47l.4.59s0,.12.2,0,.2-.15.13-.34.07-.32.17-.16a3.8,3.8,0,0,1,.21.38l.06.1s.33.36-.12.21l-.09-.07s0-.11-.22,0-.07.18,0,.3l.28.45s0,.15.3,0,.45-.32.45-.32.06,0,.06-.06-.13-.48.05-.49a.22.22,0,0,1,.22.14l.08.29s.07.2-.13.23l-.18.09c-.44.3-.86.62-1.27,1,0,0-.41.05-.24-.17l.17-.18s.14-.08-.13-.39-.81-1.06-.81-1.06-.06-.08-.27,0c0,0-.3.16-.22-.14Z"/><path class="cls-11" d="M59.66,61a1,1,0,0,0-1.31-.23l-.11.09h0c.13.28.33,0,.33,0,.16-.23.61,0,.61,0a.47.47,0,0,1,.33.58.35.35,0,0,1-.07.15c-.13.31-.57,0-.57,0-.26-.45-.43-.15-.5,0v.06h0c.22.41.45.09.45.09.17,0,.27.23.27.23,0,.63-.44.67-.54.67h0c-.4.07-.78-.79-.78-.79.17-.43-.16-.49-.16-.49s-.48-.12-.46.31.48.31.48.31a2.33,2.33,0,0,0,.38.67h0a2.73,2.73,0,0,0,.48.25h0c1.33.2.93-.91.93-.91a.52.52,0,0,0,.42-.25A1,1,0,0,0,59.66,61Z"/><path class="cls-11" d="M62.87,65.57l-.08-.3a.17.17,0,0,0-.2-.1l-2.09,0-.13-.2c-.24-.16-.24.1-.24.1l.12.24.09.34c.08.16.16.16.23.15s0-.37,0-.37h.5l.24.59-.4.29v0l-.19-.19c0-.1-.17,0-.21.06h0l.2.32.14.66v.08H61c.07-.06,0-.36,0-.36l.12-.09s1.38-.86,1.56-1a.22.22,0,0,0,.18-.25ZM61.48,66l-.19-.54h1.07Z"/><path class="cls-11" d="M59.15,74.86a1.23,1.23,0,0,0-1.65-.51c-.57.34-.53.6-.52.92s.11.24.27.22,0-.33,0-.33v-.27a.59.59,0,0,1,.77-.31l.11.06.21.3h0v0h0a0,0,0,0,0,0,0h0l0,0a1.3,1.3,0,0,1,.22.66.84.84,0,0,1-1,.51L57.46,76s0-.21-.26-.07-.08.21-.08.21l.19.19a2.78,2.78,0,0,1,.16.4c.05.18.19.17.19.17s.15,0,.14-.13a.24.24,0,0,1,.11-.19,1.34,1.34,0,0,0,.63-.09h.07A1.14,1.14,0,0,0,59.22,75S59.17,74.91,59.15,74.86Z"/><path class="cls-11" d="M47.48,70.53c-.17,0-.21-.1-.21-.1s-.14-.66-.18-1,.12-.42.12-.42c.36-.18.09-.33.09-.33l-.23-.16s-.33-.13-.3.09a.5.5,0,0,1-.06.34L45,69.82h0l-.06-.17c0-.12-.13-.09-.13-.09s-.19,0-.06.21a3.86,3.86,0,0,1,.16.94c.06.14.2,0,.2,0v-.25h0s1.6.19,1.84.2.24.13.24.13l.08.26c.28.14.27,0,.28-.06s0-.06.18-.24S47.65,70.55,47.48,70.53Zm-2.25-.29a8.28,8.28,0,0,1,1.66-.75l.18,1Z"/><path class="cls-11" d="M54,61a.59.59,0,1,0-.59-.59h0A.58.58,0,0,0,54,61Z"/><path class="cls-11" d="M53.93,74.43a5.84,5.84,0,1,0-5.84-5.85h0A5.85,5.85,0,0,0,53.93,74.43Z"/><path class="cls-4" d="M59.69,68.59a5.77,5.77,0,1,1-5.76-5.77,5.76,5.76,0,0,1,5.76,5.77Z"/><path class="cls-10" d="M53.93,73.86a5.28,5.28,0,1,0-5.26-5.29v0A5.27,5.27,0,0,0,53.93,73.86Z"/><path class="cls-4" d="M59.13,68.59a5.21,5.21,0,1,1-5.21-5.2h0A5.2,5.2,0,0,1,59.13,68.59Z"/></g></g></g></g></svg>